<svg width="24" height="25" viewBox="0 0 24 25" fill="none" xmlns="http://www.w3.org/2000/svg">
<g clip-path="url(#clip0_553_55)">
<path d="M24 18.4096C24 18.5411 23.9959 18.8247 23.9877 19.0466C23.9671 19.5849 23.926 20.2795 23.8603 20.5959C23.7616 21.0726 23.6178 21.5205 23.4247 21.8945C23.1986 22.3384 22.911 22.7329 22.5658 23.074C22.2247 23.4151 21.8301 23.7027 21.3863 23.9288C21.0123 24.1219 20.5603 24.2658 20.0795 24.3644C19.7671 24.426 19.0767 24.4712 18.5425 24.4877C18.3205 24.4959 18.037 24.5 17.9055 24.5H6.0863C5.95479 24.5 5.67123 24.4959 5.44932 24.4877C4.91096 24.4671 4.21644 24.426 3.9 24.3603C3.42329 24.2616 2.97534 24.1178 2.60137 23.9247C2.15753 23.6986 1.76301 23.411 1.42192 23.0658C1.08082 22.7247 0.793151 22.3301 0.567123 21.8863C0.373973 21.5123 0.230137 21.0603 0.131507 20.5795C0.069863 20.2671 0.0246575 19.5767 0.00821918 19.0425C0.00410959 18.8247 0 18.5411 0 18.4096V6.59041C0 6.4589 0.00410959 6.17534 0.0123288 5.95342C0.0328767 5.41507 0.0739726 4.72055 0.139726 4.40411C0.238356 3.9274 0.382192 3.47945 0.575342 3.10548C0.80137 2.66164 1.08904 2.26712 1.43014 1.92603C1.77123 1.58493 2.16575 1.29726 2.60959 1.07123C2.98356 0.878082 3.43562 0.734247 3.91644 0.635616C4.22877 0.573973 4.91918 0.528767 5.45342 0.512329C5.67534 0.50411 5.9589 0.5 6.09041 0.5H17.9096C18.0411 0.5 18.3247 0.50411 18.5466 0.512329C19.0849 0.532877 19.7795 0.573973 20.0959 0.639726C20.5726 0.738356 21.0205 0.882192 21.3945 1.07534C21.8384 1.30137 22.2329 1.58904 22.574 1.93425C22.9151 2.27534 23.2027 2.66986 23.4288 3.1137C23.6219 3.48767 23.7658 3.93973 23.8644 4.42055C23.926 4.73288 23.9712 5.42329 23.9877 5.95753C23.9959 6.17945 24 6.46301 24 6.59452V18.4096Z" fill="url(#paint0_linear_553_55)"/>
<path fill-rule="evenodd" clip-rule="evenodd" d="M18.3124 6.24521C16.6973 4.63014 14.548 3.73836 12.259 3.73836C7.54115 3.73836 3.70691 7.57671 3.7028 12.2904C3.7028 13.7986 4.09732 15.2699 4.84526 16.5644L3.63293 20.9986L8.16992 19.811C9.41924 20.4932 10.8247 20.8507 12.259 20.8507H12.2631C16.9768 20.8507 20.8151 17.0123 20.8192 12.2986C20.8192 10.0096 19.9275 7.86028 18.3124 6.24521ZM12.2631 19.4041C10.985 19.4041 9.73156 19.0589 8.64252 18.4137L8.38362 18.2616L5.69184 18.9685L6.41102 16.3466L6.24252 16.0795C5.53156 14.9493 5.15348 13.6384 5.15348 12.2945C5.15348 8.37397 8.34663 5.18493 12.2672 5.18493C14.1658 5.18493 15.9535 5.92466 17.2932 7.26849C18.637 8.61233 19.3768 10.4 19.3727 12.2986C19.3686 16.2151 16.1795 19.4041 12.2631 19.4041ZM16.1631 14.0822C15.9494 13.9753 14.8973 13.4575 14.7042 13.3877C14.5069 13.3178 14.3672 13.2808 14.2233 13.4945C14.0795 13.7082 13.6727 14.189 13.5453 14.3329C13.422 14.4767 13.2946 14.4932 13.0809 14.3863C12.8672 14.2795 12.1768 14.0534 11.3631 13.326C10.7261 12.7589 10.2987 12.0603 10.1754 11.8466C10.0521 11.6329 10.1631 11.5178 10.2699 11.411C10.3644 11.3164 10.4836 11.1603 10.5905 11.037C10.6973 10.9137 10.7343 10.8233 10.8042 10.6795C10.874 10.5356 10.8412 10.4123 10.7877 10.3055C10.7343 10.1986 10.3069 9.14658 10.1302 8.71918C9.95759 8.30411 9.78088 8.35754 9.64937 8.35343C9.52608 8.34521 9.38225 8.34521 9.23841 8.34521C9.09458 8.34521 8.86444 8.39863 8.66718 8.61233C8.46992 8.82603 7.91924 9.34384 7.91924 10.3959C7.91924 11.4479 8.68362 12.463 8.79047 12.6069C8.89732 12.7507 10.2987 14.9082 12.4439 15.8329C12.9535 16.0548 13.3521 16.1863 13.6644 16.2849C14.1781 16.4493 14.6425 16.4247 15.0124 16.3712C15.4233 16.3096 16.2781 15.8534 16.4549 15.3562C16.6316 14.8589 16.6316 14.4274 16.5781 14.3411C16.5165 14.2425 16.3768 14.189 16.1631 14.0822Z" fill="white"/>
</g>
<defs>
<linearGradient id="paint0_linear_553_55" x1="12.0009" y1="24.5018" x2="12.0009" y2="0.5" gradientUnits="userSpaceOnUse">
<stop stop-color="#25CF43"/>
<stop offset="1" stop-color="#61FD7D"/>
</linearGradient>
<clipPath id="clip0_553_55">
<rect width="24" height="24" fill="white" transform="translate(0 0.5)"/>
</clipPath>
</defs>
</svg>
